<svg width="290.1600036621094" height="174.44444274902344" xmlns="http://www.w3.org/2000/svg" style="animation-delay: 0s; animation-direction: normal; animation-duration: 0s; animation-fill-mode: none; animation-iteration-count: 1; animation-name: none; animation-play-state: running; animation-timing-function: ease; background-attachment: scroll; background-blend-mode: normal; background-clip: border-box; background-color: rgba(0, 0, 0, 0); background-image: none; background-origin: padding-box; background-position: 0% 0%; background-repeat: repeat; background-size: auto; border-bottom-color: rgb(69, 74, 80); border-bottom-left-radius: 0px; border-bottom-right-radius: 0px; border-bottom-style: none; border-bottom-width: 0px; border-collapse: separate; border-image-outset: 0px; border-image-repeat: stretch; border-image-slice: 100%; border-image-source: none; border-image-width: 1; border-left-color: rgb(69, 74, 80); border-left-style: none; border-left-width: 0px; border-right-color: rgb(69, 74, 80); border-right-style: none; border-right-width: 0px; border-top-color: rgb(69, 74, 80); border-top-left-radius: 0px; border-top-right-radius: 0px; border-top-style: none; border-top-width: 0px; bottom: auto; box-shadow: none; box-sizing: border-box; break-after: auto; break-before: auto; break-inside: auto; caption-side: top; clear: none; clip: auto; color: rgb(69, 74, 80); content: normal; cursor: auto; direction: ltr; display: inline; empty-cells: show; float: none; font-family: &quot;Avenir W01&quot;, Arial, sans-serif; font-kerning: auto; font-size: 16px; font-stretch: 100%; font-style: normal; font-variant: normal; font-variant-ligatures: normal; font-variant-caps: normal; font-variant-numeric: normal; font-variant-east-asian: normal; font-weight: 400; height: 174.438px; image-rendering: auto; isolation: auto; justify-items: normal; justify-self: auto; left: auto; letter-spacing: normal; line-height: normal; list-style-image: none; list-style-position: outside; list-style-type: disc; margin-bottom: 0px; margin-left: 0px; margin-right: 0px; margin-top: 0px; max-height: none; max-width: none; min-height: 0px; min-width: 0px; mix-blend-mode: normal; object-fit: fill; object-position: 50% 50%; offset-distance: 0px; offset-path: none; offset-rotate: auto 0deg; opacity: 1; orphans: 2; outline-color: rgb(69, 74, 80); outline-offset: 0px; outline-style: none; outline-width: 0px; overflow-anchor: auto; overflow-wrap: normal; overflow-x: hidden; overflow-y: hidden; padding-bottom: 0px; padding-left: 0px; padding-right: 0px; padding-top: 0px; pointer-events: auto; position: static; resize: none; right: auto; scroll-behavior: auto; speak: normal; table-layout: auto; tab-size: 8; text-align: start; text-align-last: auto; text-decoration: none solid rgb(69, 74, 80); text-decoration-line: none; text-decoration-style: solid; text-decoration-color: rgb(69, 74, 80); text-decoration-skip-ink: auto; text-underline-position: auto; text-indent: 0px; text-rendering: auto; text-shadow: none; text-size-adjust: auto; text-overflow: clip; text-transform: none; top: auto; touch-action: auto; transition-delay: 0s; transition-duration: 0s; transition-property: all; transition-timing-function: ease; unicode-bidi: normal; vertical-align: baseline; visibility: visible; white-space: normal; widows: 2; width: 290.156px; will-change: auto; word-break: normal; word-spacing: 0px; word-wrap: normal; z-index: auto; zoom: 1; -webkit-appearance: none; backface-visibility: visible; -webkit-border-horizontal-spacing: 0px; -webkit-border-image: none; -webkit-border-vertical-spacing: 0px; -webkit-box-align: stretch; -webkit-box-decoration-break: slice; -webkit-box-direction: normal; -webkit-box-flex: 0; -webkit-box-ordinal-group: 1; -webkit-box-orient: horizontal; -webkit-box-pack: start; -webkit-box-reflect: none; column-count: auto; column-gap: normal; column-rule-color: rgb(69, 74, 80); column-rule-style: none; column-rule-width: 0px; column-span: none; column-width: auto; align-content: normal; align-items: normal; align-self: auto; flex-basis: auto; flex-grow: 0; flex-shrink: 1; flex-direction: row; flex-wrap: nowrap; justify-content: normal; -webkit-font-smoothing: auto; grid-auto-columns: auto; grid-auto-flow: row; grid-auto-rows: auto; grid-column-end: auto; grid-column-start: auto; grid-template-areas: none; grid-template-columns: none; grid-template-rows: none; grid-row-end: auto; grid-row-start: auto; row-gap: normal; -webkit-highlight: none; hyphens: manual; -webkit-hyphenate-character: auto; -webkit-line-break: auto; -webkit-line-clamp: none; -webkit-locale: auto; -webkit-margin-before-collapse: collapse; -webkit-margin-after-collapse: collapse; -webkit-mask-box-image: none; -webkit-mask-box-image-outset: 0px; -webkit-mask-box-image-repeat: stretch; -webkit-mask-box-image-slice: 0 fill; -webkit-mask-box-image-source: none; -webkit-mask-box-image-width: auto; -webkit-mask-clip: border-box; -webkit-mask-composite: source-over; -webkit-mask-image: none; -webkit-mask-origin: border-box; -webkit-mask-position: 0% 0%; -webkit-mask-repeat: repeat; -webkit-mask-size: auto; order: 0; perspective: none; perspective-origin: 145.078px 87.2188px; -webkit-print-color-adjust: economy; -webkit-rtl-ordering: logical; shape-outside: none; shape-image-threshold: 0; shape-margin: 0px; -webkit-tap-highlight-color: rgba(0, 0, 0, 0.4); -webkit-text-combine: none; -webkit-text-decorations-in-effect: none; -webkit-text-emphasis-color: rgb(69, 74, 80); -webkit-text-emphasis-position: over right; -webkit-text-emphasis-style: none; -webkit-text-fill-color: rgb(69, 74, 80); -webkit-text-orientation: vertical-right; -webkit-text-security: none; -webkit-text-stroke-color: rgb(69, 74, 80); -webkit-text-stroke-width: 0px; transform: none; transform-origin: 145.078px 87.2188px; transform-style: flat; -webkit-user-drag: auto; -webkit-user-modify: read-only; user-select: auto; -webkit-writing-mode: horizontal-tb; -webkit-app-region: none; buffered-rendering: auto; clip-path: none; clip-rule: nonzero; mask: none; filter: none; flood-color: rgb(0, 0, 0); flood-opacity: 1; lighting-color: rgb(255, 255, 255); stop-color: rgb(0, 0, 0); stop-opacity: 1; color-interpolation: sRGB; color-interpolation-filters: linearRGB; color-rendering: auto; fill: rgb(0, 0, 0); fill-opacity: 1; fill-rule: nonzero; marker-end: none; marker-mid: none; marker-start: none; mask-type: luminance; shape-rendering: auto; stroke: none; stroke-dasharray: none; stroke-dashoffset: 0px; stroke-linecap: butt; stroke-linejoin: miter; stroke-miterlimit: 4; stroke-opacity: 1; stroke-width: 1px; alignment-baseline: auto; baseline-shift: 0px; dominant-baseline: auto; text-anchor: start; writing-mode: horizontal-tb; vector-effect: none; paint-order: fill stroke markers; d: none; cx: 0px; cy: 0px; x: 0px; y: 0px; r: 0px; rx: auto; ry: auto; caret-color: rgb(69, 74, 80); line-break: auto;" version="1.1" xmlns:xlink="http://www.w3.org/1999/xlink"><style type="text/css">* { box-sizing: border-box; }
* { box-sizing: border-box; }</style><svg xmlns="http://www.w3.org/2000/svg"><defs id="SvgjsDefs1001"/><g id="SvgjsG1007" featurekey="root" fill="#ffffff" transform="matrix(1,0,0,1,0,0)"/><g id="SvgjsG1008" featurekey="symbol1" fill="#b52e2e" transform="matrix(5.555555555555555,0,0,5.555555555555555,9.444444444444445,3.8888888888888893)"><g transform="translate(-390 -620)"><path xmlns="http://www.w3.org/2000/svg" xlink="http://www.w3.org/1999/xlink" d="M416.393,626H418v-4h-4v4h1.384c-0.547,3.881-3.235,7.644-8.384,8.701V633h-5v2h-7.07   c-0.224-0.861-0.999-1.5-1.93-1.5c-1.105,0-2,0.896-2,2c0,1.106,0.895,2,2,2c0.931,0,1.706-0.639,1.93-1.5h4.131   c-3.59,1.56-5.875,4.742-6.422,8H391v4h4v-4h-1.35c0.671-3.592,3.7-7.041,8.35-7.824V638h5v-2h7.07c0.224,0.861,0.999,1.5,1.93,1.5   c1.104,0,2-0.894,2-2c0-1.104-0.896-2-2-2c-0.931,0-1.706,0.639-1.93,1.5h-4.545C413.713,633.305,415.922,629.688,416.393,626z"/></g></g><g id="SvgjsG1009" featurekey="text1" fill="#766c51" transform="matrix(4.417001382942657,0,0,4.417001382942657,174.2578963066032,5.829986170573427)"><path d="M10.78 23.6 c0.1 0.24 -0.02 0.4 -0.28 0.4 l-1.12 0 c-0.18 0 -0.34 -0.08 -0.4 -0.26 l-2.02 -4.56 c-0.16 0.02 -0.32 0.02 -0.5 0.02 l-3.42 0 l0 4.5 c0 0.2 -0.1 0.3 -0.3 0.3 l-1.14 0 c-0.2 0 -0.3 -0.1 -0.3 -0.3 l0 -13.4 c0 -0.2 0.1 -0.3 0.3 -0.3 l1.14 0 l3.72 0 c2.6 0 3.96 1.4 3.96 4 l0 1.2 c0 1.74 -0.62 2.96 -1.82 3.56 z M3.04 17.62 l3.42 0 c1.56 0 2.22 -0.64 2.22 -2.42 l0 -1.2 c0 -1.78 -0.66 -2.42 -2.22 -2.42 l-3.42 0 l0 6.04 z M22.54 23.66 c0.08 0.22 -0.04 0.34 -0.24 0.34 l-1.12 0 c-0.2 0 -0.3 -0.12 -0.38 -0.34 l-0.76 -2.6 l-5.28 0 l-0.76 2.6 c-0.06 0.22 -0.18 0.34 -0.38 0.34 l-1.12 0 c-0.2 0 -0.3 -0.12 -0.24 -0.34 l4.04 -13.34 c0.06 -0.2 0.2 -0.32 0.38 -0.32 l1.42 0 c0.18 0 0.32 0.12 0.38 0.32 z M15.200000000000001 19.54 l4.4 0 l-2.2 -7.42 z M24.48 10.3 c0 -0.2 0.1 -0.3 0.3 -0.3 l1.16 0 c0.2 0 0.3 0.1 0.3 0.3 l0 13.4 c0 0.2 -0.1 0.3 -0.3 0.3 l-1.16 0 c-0.2 0 -0.3 -0.1 -0.3 -0.3 l0 -13.4 z"/></g><g id="SvgjsG1010" featurekey="text3" fill="#b52e2e" transform="matrix(0.19983066861222812,0,0,0.19983066861222812,179.6403047583833,125.04165960005886)"><path d="M9.42 23.14 c-0.24 -0.46 -0.38 -1.12 -0.38 -2.3 c0 -1.02 -0.52 -1.66 -1.14 -2.12 c-0.62 -0.44 -1.36 -0.66 -1.62 -0.7 c-0.06 -0.02 -0.08 -0.04 -0.1 -0.04 l-3.4 0 l0 5.54 c0 0.26 -0.22 0.48 -0.5 0.48 c-0.26 0 -0.48 -0.22 -0.48 -0.48 l0 -13.04 c0 -0.24 0.2 -0.46 0.44 -0.48 l0.04 0 l0.06 0 l3.9 0 c2.2 0 3.98 1.78 3.98 4 c0 1.6 -0.94 2.98 -2.3 3.62 c0.06 0.04 0.12 0.06 0.2 0.1 c0.92 0.52 1.88 1.54 1.88 3.12 c0 0.82 0.08 1.32 0.18 1.62 c0.08 0.24 0.18 0.32 0.2 0.34 c0.22 -0.02 0.46 0.1 0.54 0.32 c0.06 0.26 -0.06 0.54 -0.32 0.64 c-0.02 0 -0.12 0.02 -0.24 0.02 l-0.04 0 c-0.26 0 -0.68 -0.2 -0.9 -0.64 z M9.26 14 c0 -1.68 -1.36 -3.02 -3.02 -3.02 l-3.46 0 l0 6.04 l3.36 0 l0.18 0 c1.62 -0.04 2.94 -1.38 2.94 -3.02 z M23.48 23.68 l-1.24 -3.3 l-6.38 0 l-1.24 3.3 c-0.08 0.2 -0.26 0.32 -0.46 0.32 c-0.04 0 -0.12 -0.02 -0.18 -0.02 c-0.24 -0.1 -0.38 -0.4 -0.28 -0.64 l4.86 -12.98 c0.08 -0.18 0.28 -0.3 0.48 -0.3 c0.22 0 0.42 0.12 0.48 0.3 l4.86 12.98 c0.1 0.24 -0.02 0.54 -0.26 0.64 c-0.08 0 -0.12 0.02 -0.18 0.02 c-0.18 0 -0.38 -0.12 -0.46 -0.32 z M19.06 11.88 l-2.84 7.52 l5.66 0 z M27.5 23.52 l0 -13.04 c0 -0.26 0.22 -0.48 0.48 -0.48 l0.06 0 l3.9 0 c2.2 0 3.98 1.8 3.98 4 s-1.78 3.98 -3.98 3.98 l-3.46 0.04 l0 5.5 c0 0.26 -0.22 0.48 -0.5 0.48 c-0.26 0 -0.48 -0.22 -0.48 -0.48 z M28.48 17.04 l3.46 0 c1.66 -0.02 3.02 -1.38 3.02 -3.04 s-1.36 -3.02 -3.02 -3.02 l-3.46 0 l0 6.06 z M39.3 23.52 l0 -13.04 c0 -0.26 0.22 -0.48 0.48 -0.48 l0 0 c0.28 0 0.5 0.22 0.5 0.48 l0 0 l0 13.04 c0 0.26 -0.22 0.48 -0.5 0.48 l0 0 c-0.26 0 -0.48 -0.22 -0.48 -0.48 l0 0 z M48.36 24 l-2.58 0 l-0.08 0 c-0.24 -0.02 -0.44 -0.22 -0.44 -0.48 l0 -13.04 c0 -0.26 0.22 -0.48 0.48 -0.48 l0.06 0 l2.56 0 c3.86 0 7 3.16 7 7.02 s-3.14 6.98 -7 6.98 z M46.24 23.02 l2.12 0 c3.32 0 6.02 -2.68 6.02 -6 c0 -3.34 -2.7 -6.02 -6.02 -6.04 l-2.12 0 l0 12.04 z  M74.54 23.68 l-1.24 -3.3 l-6.38 0 l-1.24 3.3 c-0.08 0.2 -0.26 0.32 -0.46 0.32 c-0.04 0 -0.12 -0.02 -0.18 -0.02 c-0.24 -0.1 -0.38 -0.4 -0.28 -0.64 l4.86 -12.98 c0.08 -0.18 0.28 -0.3 0.48 -0.3 c0.22 0 0.42 0.12 0.48 0.3 l4.86 12.98 c0.1 0.24 -0.02 0.54 -0.26 0.64 c-0.08 0 -0.12 0.02 -0.18 0.02 c-0.18 0 -0.38 -0.12 -0.46 -0.32 z M70.12 11.88 l-2.84 7.52 l5.66 0 z M82.18 23.52 l0 -12.54 l-4.22 0 c-0.26 0 -0.48 -0.22 -0.48 -0.5 c0 -0.26 0.22 -0.48 0.48 -0.48 l9.4 0 c0.26 0 0.48 0.22 0.48 0.48 c0 0.28 -0.22 0.5 -0.48 0.5 l-4.22 0 l0 12.54 c0 0.26 -0.22 0.48 -0.48 0.48 s-0.48 -0.22 -0.48 -0.48 z M95.14 23.52 l0 -12.54 l-4.22 0 c-0.26 0 -0.48 -0.22 -0.48 -0.5 c0 -0.26 0.22 -0.48 0.48 -0.48 l9.4 0 c0.26 0 0.48 0.22 0.48 0.48 c0 0.28 -0.22 0.5 -0.48 0.5 l-4.22 0 l0 12.54 c0 0.26 -0.22 0.48 -0.48 0.48 s-0.48 -0.22 -0.48 -0.48 z M113.38000000000001 23.68 l-1.24 -3.3 l-6.38 0 l-1.24 3.3 c-0.08 0.2 -0.26 0.32 -0.46 0.32 c-0.04 0 -0.12 -0.02 -0.18 -0.02 c-0.24 -0.1 -0.38 -0.4 -0.28 -0.64 l4.86 -12.98 c0.08 -0.18 0.28 -0.3 0.48 -0.3 c0.22 0 0.42 0.12 0.48 0.3 l4.86 12.98 c0.1 0.24 -0.02 0.54 -0.26 0.64 c-0.08 0 -0.12 0.02 -0.18 0.02 c-0.18 0 -0.38 -0.12 -0.46 -0.32 z M108.96000000000001 11.88 l-2.84 7.52 l5.66 0 z M116.78 16.94 c0 -3.98 3.26 -7.12 7.28 -7.14 l0 0 c1.72 0 3.3 0.6 4.52 1.54 l0 0 c0.22 0.18 0.26 0.52 0.08 0.7 l0 0 c-0.16 0.24 -0.48 0.26 -0.68 0.1 l0 0 c-1.08 -0.84 -2.44 -1.36 -3.92 -1.36 l0 0 c-3.5 0 -6.3 2.74 -6.3 6.16 l0 0 c0 3.34 2.8 6.08 6.3 6.08 l0 0 c1.48 0 2.84 -0.48 3.88 -1.36 l0 0 c0.24 -0.16 0.56 -0.12 0.7 0.12 l0 0 c0.2 0.18 0.16 0.54 -0.06 0.7 l0 0 c-1.22 0.94 -2.8 1.52 -4.52 1.52 l0 0 c-4.02 0 -7.28 -3.16 -7.28 -7.06 l0 0 z M132.82000000000002 23.52 l0 -12.98 c0 -0.28 0.22 -0.5 0.48 -0.5 c0.28 0 0.5 0.22 0.5 0.5 l0 8.1 l8.46 -8.46 c0.2 -0.18 0.52 -0.18 0.68 0 c0.2 0.18 0.2 0.5 0 0.7 l-5.36 5.36 l5.48 6.96 c0.16 0.22 0.12 0.5 -0.08 0.7 c-0.1 0.08 -0.2 0.1 -0.32 0.1 c-0.14 0 -0.26 -0.04 -0.36 -0.18 l-5.42 -6.88 l-3.08 3.08 l0 3.5 c0 0.26 -0.22 0.48 -0.5 0.48 c-0.26 0 -0.48 -0.22 -0.48 -0.48 z  M153.26000000000002 23.52 l0 -13.04 c0 -0.26 0.22 -0.48 0.48 -0.48 l0 0 c0.28 0 0.5 0.22 0.5 0.48 l0 0 l0 13.04 c0 0.26 -0.22 0.48 -0.5 0.48 l0 0 c-0.26 0 -0.48 -0.22 -0.48 -0.48 l0 0 z M168.64000000000001 23.74 l-8.4 -11.68 l0 11.46 c0 0.26 -0.22 0.48 -0.48 0.48 s-0.48 -0.22 -0.48 -0.48 l0 -12.84 c-0.06 -0.2 0 -0.4 0.18 -0.54 c0.22 -0.14 0.54 -0.1 0.68 0.12 l8.48 11.76 l0 -11.4 c0 -0.26 0.22 -0.48 0.48 -0.48 c0.28 0 0.5 0.22 0.5 0.48 l0 12.9 c0 0.26 -0.22 0.48 -0.5 0.48 c-0.16 0 -0.28 -0.06 -0.38 -0.18 c-0.02 -0.02 -0.06 -0.04 -0.08 -0.08 z M174.64000000000001 23.52 l0 -13.04 c0 -0.26 0.2 -0.46 0.46 -0.48 l0.08 0 l7.16 0 c0.26 0 0.48 0.22 0.48 0.48 c0 0.28 -0.22 0.5 -0.48 0.5 l-6.72 0 l0 5.54 l5.88 0 c0.28 0 0.5 0.22 0.5 0.5 c0 0.26 -0.22 0.48 -0.5 0.48 l-5.88 0 l0 6.02 c0 0.26 -0.22 0.48 -0.5 0.48 c-0.26 0 -0.48 -0.22 -0.48 -0.48 z M194.07999999999998 23.14 c-0.24 -0.46 -0.38 -1.12 -0.38 -2.3 c0 -1.02 -0.52 -1.66 -1.14 -2.12 c-0.62 -0.44 -1.36 -0.66 -1.62 -0.7 c-0.06 -0.02 -0.08 -0.04 -0.1 -0.04 l-3.4 0 l0 5.54 c0 0.26 -0.22 0.48 -0.5 0.48 c-0.26 0 -0.48 -0.22 -0.48 -0.48 l0 -13.04 c0 -0.24 0.2 -0.46 0.44 -0.48 l0.04 0 l0.06 0 l3.9 0 c2.2 0 3.98 1.78 3.98 4 c0 1.6 -0.94 2.98 -2.3 3.62 c0.06 0.04 0.12 0.06 0.2 0.1 c0.92 0.52 1.88 1.54 1.88 3.12 c0 0.82 0.08 1.32 0.18 1.62 c0.08 0.24 0.18 0.32 0.2 0.34 c0.22 -0.02 0.46 0.1 0.54 0.32 c0.06 0.26 -0.06 0.54 -0.32 0.64 c-0.02 0 -0.12 0.02 -0.24 0.02 l-0.04 0 c-0.26 0 -0.68 -0.2 -0.9 -0.64 z M193.92 14 c0 -1.68 -1.36 -3.02 -3.02 -3.02 l-3.46 0 l0 6.04 l3.36 0 l0.18 0 c1.62 -0.04 2.94 -1.38 2.94 -3.02 z M208.14 23.68 l-1.24 -3.3 l-6.38 0 l-1.24 3.3 c-0.08 0.2 -0.26 0.32 -0.46 0.32 c-0.04 0 -0.12 -0.02 -0.18 -0.02 c-0.24 -0.1 -0.38 -0.4 -0.28 -0.64 l4.86 -12.98 c0.08 -0.18 0.28 -0.3 0.48 -0.3 c0.22 0 0.42 0.12 0.48 0.3 l4.86 12.98 c0.1 0.24 -0.02 0.54 -0.26 0.64 c-0.08 0 -0.12 0.02 -0.18 0.02 c-0.18 0 -0.38 -0.12 -0.46 -0.32 z M203.72 11.88 l-2.84 7.52 l5.66 0 z M211.57999999999998 22 c-0.18 -0.16 -0.2 -0.44 -0.06 -0.62 l0 0 c0.16 -0.2 0.44 -0.22 0.62 -0.06 l0 0 c1.04 0.84 2.78 1.82 4.6 1.8 l0 0 c1.22 0 2.32 -0.36 3.08 -0.92 l0 0 c0.78 -0.56 1.2 -1.3 1.2 -2.08 l0 0 c0 -0.8 -0.38 -1.4 -1.14 -1.92 l0 0 c-0.76 -0.5 -1.88 -0.88 -3.24 -1.14 l0 0 l-0.04 0 c-1.3 -0.24 -2.44 -0.6 -3.3 -1.18 l0 0 c-0.86 -0.56 -1.44 -1.4 -1.44 -2.44 l0 0 c0 -1.06 0.58 -1.98 1.46 -2.62 l0 0 c0.88 -0.64 2.06 -1.02 3.38 -1.02 l0 0 c1.84 0 3.22 0.9 4.32 1.62 l0 0 c0.2 0.14 0.26 0.4 0.12 0.62 l0 0 c-0.12 0.2 -0.4 0.26 -0.6 0.12 l0 0 c-1.1 -0.72 -2.3 -1.48 -3.84 -1.48 l0 0 c-1.14 0 -2.16 0.34 -2.86 0.84 l0 0 c-0.7 0.52 -1.1 1.2 -1.1 1.92 l0 0 c0.02 0.7 0.34 1.22 1.04 1.7 l0 0 c0.7 0.48 1.74 0.82 3 1.06 l0 0 l0.04 0 c1.4 0.26 2.64 0.66 3.56 1.28 l0 0 c0.92 0.6 1.54 1.52 1.54 2.64 l0 0 c0 1.12 -0.64 2.12 -1.58 2.8 l0 0 c-0.94 0.68 -2.2 1.1 -3.6 1.1 l0 0 c-2.14 -0.02 -4 -1.1 -5.16 -2.02 l0 0 z M229.11999999999998 23.52 l0 -12.54 l-4.22 0 c-0.26 0 -0.48 -0.22 -0.48 -0.5 c0 -0.26 0.22 -0.48 0.48 -0.48 l9.4 0 c0.26 0 0.48 0.22 0.48 0.48 c0 0.28 -0.22 0.5 -0.48 0.5 l-4.22 0 l0 12.54 c0 0.26 -0.22 0.48 -0.48 0.48 s-0.48 -0.22 -0.48 -0.48 z M245.79999999999998 23.14 c-0.24 -0.46 -0.38 -1.12 -0.38 -2.3 c0 -1.02 -0.52 -1.66 -1.14 -2.12 c-0.62 -0.44 -1.36 -0.66 -1.62 -0.7 c-0.06 -0.02 -0.08 -0.04 -0.1 -0.04 l-3.4 0 l0 5.54 c0 0.26 -0.22 0.48 -0.5 0.48 c-0.26 0 -0.48 -0.22 -0.48 -0.48 l0 -13.04 c0 -0.24 0.2 -0.46 0.44 -0.48 l0.04 0 l0.06 0 l3.9 0 c2.2 0 3.98 1.78 3.98 4 c0 1.6 -0.94 2.98 -2.3 3.62 c0.06 0.04 0.12 0.06 0.2 0.1 c0.92 0.52 1.88 1.54 1.88 3.12 c0 0.82 0.08 1.32 0.18 1.62 c0.08 0.24 0.18 0.32 0.2 0.34 c0.22 -0.02 0.46 0.1 0.54 0.32 c0.06 0.26 -0.06 0.54 -0.32 0.64 c-0.02 0 -0.12 0.02 -0.24 0.02 l-0.04 0 c-0.26 0 -0.68 -0.2 -0.9 -0.64 z M245.64 14 c0 -1.68 -1.36 -3.02 -3.02 -3.02 l-3.46 0 l0 6.04 l3.36 0 l0.18 0 c1.62 -0.04 2.94 -1.38 2.94 -3.02 z M250.98 18.34 l0 -7.86 c0 -0.26 0.22 -0.48 0.48 -0.48 l0 0 c0.28 0 0.5 0.22 0.5 0.48 l0 0 l0 7.86 c0 2.58 2.1 4.66 4.66 4.68 l0 0 c2.6 -0.02 4.7 -2.1 4.7 -4.68 l0 0 l0 -7.86 l0 0 c0 -0.26 0.22 -0.48 0.48 -0.48 l0 0 c0.28 0 0.5 0.22 0.5 0.48 l0 0 l0 7.86 c0 3.12 -2.54 5.66 -5.68 5.66 l0 0 c-3.1 0 -5.64 -2.54 -5.64 -5.66 l0 0 z M266.61999999999995 16.94 c0 -3.98 3.26 -7.12 7.28 -7.14 l0 0 c1.72 0 3.3 0.6 4.52 1.54 l0 0 c0.22 0.18 0.26 0.52 0.08 0.7 l0 0 c-0.16 0.24 -0.48 0.26 -0.68 0.1 l0 0 c-1.08 -0.84 -2.44 -1.36 -3.92 -1.36 l0 0 c-3.5 0 -6.3 2.74 -6.3 6.16 l0 0 c0 3.34 2.8 6.08 6.3 6.08 l0 0 c1.48 0 2.84 -0.48 3.88 -1.36 l0 0 c0.24 -0.16 0.56 -0.12 0.7 0.12 l0 0 c0.2 0.18 0.16 0.54 -0.06 0.7 l0 0 c-1.22 0.94 -2.8 1.52 -4.52 1.52 l0 0 c-4.02 0 -7.28 -3.16 -7.28 -7.06 l0 0 z M286.28 23.52 l0 -12.54 l-4.22 0 c-0.26 0 -0.48 -0.22 -0.48 -0.5 c0 -0.26 0.22 -0.48 0.48 -0.48 l9.4 0 c0.26 0 0.48 0.22 0.48 0.48 c0 0.28 -0.22 0.5 -0.48 0.5 l-4.22 0 l0 12.54 c0 0.26 -0.22 0.48 -0.48 0.48 s-0.48 -0.22 -0.48 -0.48 z M295.64 18.34 l0 -7.86 c0 -0.26 0.22 -0.48 0.48 -0.48 l0 0 c0.28 0 0.5 0.22 0.5 0.48 l0 0 l0 7.86 c0 2.58 2.1 4.66 4.66 4.68 l0 0 c2.6 -0.02 4.7 -2.1 4.7 -4.68 l0 0 l0 -7.86 l0 0 c0 -0.26 0.22 -0.48 0.48 -0.48 l0 0 c0.28 0 0.5 0.22 0.5 0.48 l0 0 l0 7.86 c0 3.12 -2.54 5.66 -5.68 5.66 l0 0 c-3.1 0 -5.64 -2.54 -5.64 -5.66 l0 0 z M319.23999999999995 23.14 c-0.24 -0.46 -0.38 -1.12 -0.38 -2.3 c0 -1.02 -0.52 -1.66 -1.14 -2.12 c-0.62 -0.44 -1.36 -0.66 -1.62 -0.7 c-0.06 -0.02 -0.08 -0.04 -0.1 -0.04 l-3.4 0 l0 5.54 c0 0.26 -0.22 0.48 -0.5 0.48 c-0.26 0 -0.48 -0.22 -0.48 -0.48 l0 -13.04 c0 -0.24 0.2 -0.46 0.44 -0.48 l0.04 0 l0.06 0 l3.9 0 c2.2 0 3.98 1.78 3.98 4 c0 1.6 -0.94 2.98 -2.3 3.62 c0.06 0.04 0.12 0.06 0.2 0.1 c0.92 0.52 1.88 1.54 1.88 3.12 c0 0.82 0.08 1.32 0.18 1.62 c0.08 0.24 0.18 0.32 0.2 0.34 c0.22 -0.02 0.46 0.1 0.54 0.32 c0.06 0.26 -0.06 0.54 -0.32 0.64 c-0.02 0 -0.12 0.02 -0.24 0.02 l-0.04 0 c-0.26 0 -0.68 -0.2 -0.9 -0.64 z M319.0799999999999 14 c0 -1.68 -1.36 -3.02 -3.02 -3.02 l-3.46 0 l0 6.04 l3.36 0 l0.18 0 c1.62 -0.04 2.94 -1.38 2.94 -3.02 z M324.3999999999999 23.52 l0 -13.04 c0 -0.26 0.22 -0.48 0.48 -0.48 l0.04 0 l7.16 0 c0.28 0 0.48 0.22 0.48 0.48 c0 0.28 -0.2 0.5 -0.48 0.5 l-6.7 0 l0 5.54 l5.86 0 c0.26 0 0.48 0.22 0.48 0.5 c0 0.26 -0.22 0.48 -0.48 0.48 l-5.86 0 l0 5.52 l6.7 0 c0.28 0 0.48 0.22 0.48 0.5 c0 0.26 -0.2 0.48 -0.48 0.48 l-7.14 0 l-0.06 0 l-0.04 0 c-0.24 -0.02 -0.44 -0.22 -0.44 -0.48 z "/></g></svg></svg>